<svg width="16" height="20" viewBox="0 0 16 20" fill="none" xmlns="http://www.w3.org/2000/svg">
<path d="M2.16809 19.75C1.6694 19.75 1.25304 19.583 0.91901 19.249C0.584983 18.9149 0.417969 18.4986 0.417969 17.9999V6.33346C0.417969 5.83476 0.584983 5.4184 0.91901 5.08438C1.25304 4.75035 1.6694 4.58333 2.16809 4.58333H4.20964V4.04167C4.20964 2.98885 4.57842 2.09374 5.31599 1.35635C6.05338 0.618784 6.94848 0.25 8.0013 0.25C9.05412 0.25 9.94923 0.618784 10.6866 1.35635C11.4242 2.09374 11.793 2.98885 11.793 4.04167V4.58333H13.8345C14.3332 4.58333 14.7496 4.75035 15.0836 5.08438C15.4176 5.4184 15.5846 5.83476 15.5846 6.33346V17.9999C15.5846 18.4986 15.4176 18.9149 15.0836 19.249C14.7496 19.583 14.3332 19.75 13.8345 19.75H2.16809ZM2.16809 18.6667H13.8345C14.0013 18.6667 14.1542 18.5972 14.293 18.4584C14.4319 18.3195 14.5013 18.1667 14.5013 17.9999V6.33346C14.5013 6.16663 14.4319 6.01379 14.293 5.87494C14.1542 5.73609 14.0013 5.66667 13.8345 5.66667H11.793V8.375C11.793 8.52919 11.7412 8.65802 11.6378 8.76148C11.5343 8.86494 11.4055 8.91667 11.2513 8.91667C11.0971 8.91667 10.9683 8.86494 10.8648 8.76148C10.7614 8.65802 10.7096 8.52919 10.7096 8.375V5.66667H5.29297V8.375C5.29297 8.52919 5.24124 8.65802 5.13778 8.76148C5.03432 8.86494 4.9055 8.91667 4.7513 8.91667C4.59711 8.91667 4.46828 8.86494 4.36482 8.76148C4.26136 8.65802 4.20964 8.52919 4.20964 8.375V5.66667H2.16809C2.00126 5.66667 1.84842 5.73609 1.70957 5.87494C1.57073 6.01379 1.5013 6.16663 1.5013 6.33346V17.9999C1.5013 18.1667 1.57073 18.3195 1.70957 18.4584C1.84842 18.5972 2.00126 18.6667 2.16809 18.6667ZM5.29297 4.58333H10.7096V4.04167C10.7096 3.27918 10.4489 2.63713 9.92747 2.1155C9.40584 1.59406 8.76379 1.33333 8.0013 1.33333C7.23882 1.33333 6.59676 1.59406 6.07514 2.1155C5.55369 2.63713 5.29297 3.27918 5.29297 4.04167V4.58333Z" fill="#1C1B1F"/>
</svg>
