<svg width="20" height="19" viewBox="0 0 20 19" fill="none" xmlns="http://www.w3.org/2000/svg">
<path d="M10 18.2905L9.1791 17.549C7.41111 15.9337 5.9486 14.5511 4.7916 13.4012C3.63479 12.251 2.72162 11.2368 2.05212 10.3584C1.38262 9.47995 0.914896 8.68515 0.648937 7.97394C0.382979 7.26291 0.25 6.54764 0.25 5.82812C0.25 4.45031 0.718091 3.2934 1.65427 2.3574C2.59027 1.42121 3.74718 0.953125 5.125 0.953125C6.07779 0.953125 6.97154 1.19688 7.80625 1.68438C8.64096 2.17188 9.37221 2.88092 10 3.8115C10.6278 2.88092 11.359 2.17188 12.1938 1.68438C13.0285 1.19688 13.9222 0.953125 14.875 0.953125C16.2528 0.953125 17.4097 1.42121 18.3457 2.3574C19.2819 3.2934 19.75 4.45031 19.75 5.82812C19.75 6.54764 19.617 7.26291 19.3511 7.97394C19.0851 8.68515 18.6174 9.47995 17.9479 10.3584C17.2784 11.2368 16.3686 12.251 15.2187 13.4012C14.0687 14.5511 12.6028 15.9337 10.8209 17.549L10 18.2905ZM10 16.824C11.7333 15.2573 13.1597 13.9153 14.2792 12.798C15.3986 11.6806 16.2833 10.7111 16.9333 9.88954C17.5833 9.06801 18.0347 8.34028 18.2875 7.70635C18.5403 7.07224 18.6667 6.44617 18.6667 5.82812C18.6667 4.74479 18.3056 3.84201 17.5833 3.11979C16.8611 2.39757 15.9583 2.03646 14.875 2.03646C14.0125 2.03646 13.2167 2.28265 12.4876 2.77502C11.7583 3.2674 11.1055 4.00867 10.5292 4.99883H9.47079C8.88056 3.99476 8.22433 3.24997 7.5021 2.76446C6.77988 2.27913 5.98751 2.03646 5.125 2.03646C4.05557 2.03646 3.15622 2.39757 2.42696 3.11979C1.69788 3.84201 1.33333 4.74479 1.33333 5.82812C1.33333 6.44617 1.45972 7.07224 1.7125 7.70635C1.96528 8.34028 2.41667 9.06801 3.06667 9.88954C3.71667 10.7111 4.60139 11.677 5.72083 12.7875C6.84028 13.8979 8.26667 15.2434 10 16.824Z" fill="#272727"/>
</svg>
