<svg width="24" height="24" viewBox="0 0 24 24" fill="none" xmlns="http://www.w3.org/2000/svg">
<mask id="mask0_3071_836" style="mask-type:alpha" maskUnits="userSpaceOnUse" x="0" y="0" width="24" height="24">
<rect width="24" height="24" fill="#D9D9D9"/>
</mask>
<g mask="url(#mask0_3071_836)">
<path d="M17.5577 19.0608C16.7339 19.0608 16.0376 18.7764 15.4688 18.2076C14.8999 17.6387 14.6155 16.9424 14.6155 16.1186C14.6155 15.2946 14.8999 14.5981 15.4688 14.0293C16.0376 13.4605 16.7339 13.1761 17.5577 13.1761C18.3816 13.1761 19.0779 13.4605 19.6467 14.0293C20.2156 14.5981 20.5 15.2946 20.5 16.1186C20.5 16.9424 20.2156 17.6387 19.6467 18.2076C19.0779 18.7764 18.3816 19.0608 17.5577 19.0608ZM17.5557 18.0608C18.0916 18.0608 18.5496 17.8714 18.9298 17.4926C19.3099 17.1137 19.5 16.6563 19.5 16.1203C19.5 15.5845 19.3106 15.1265 18.9318 14.7463C18.5529 14.3661 18.0956 14.1761 17.5598 14.1761C17.0238 14.1761 16.5657 14.3655 16.1855 14.7443C15.8055 15.1231 15.6155 15.5806 15.6155 16.1166C15.6155 16.6524 15.8049 17.1104 16.1837 17.4906C16.5626 17.8707 17.0199 18.0608 17.5557 18.0608ZM5 16.6186V15.6186H12.2308V16.6186H5ZM6.44225 10.8301C5.61842 10.8301 4.92208 10.5456 4.35325 9.97681C3.78442 9.40798 3.5 8.71156 3.5 7.88756C3.5 7.06373 3.78442 6.3674 4.35325 5.79856C4.92208 5.22973 5.61842 4.94531 6.44225 4.94531C7.26608 4.94531 7.96242 5.22973 8.53125 5.79856C9.10008 6.3674 9.3845 7.06373 9.3845 7.88756C9.3845 8.71156 9.10008 9.40798 8.53125 9.97681C7.96242 10.5456 7.26608 10.8301 6.44225 10.8301ZM6.44025 9.83006C6.97625 9.83006 7.43433 9.64065 7.8145 9.26181C8.1945 8.88298 8.3845 8.42556 8.3845 7.88956C8.3845 7.35373 8.19508 6.89573 7.81625 6.51556C7.43742 6.1354 6.98008 5.94531 6.44425 5.94531C5.90842 5.94531 5.45042 6.13473 5.07025 6.51356C4.69008 6.8924 4.5 7.34981 4.5 7.88581C4.5 8.42165 4.68942 8.87965 5.06825 9.25981C5.44708 9.63998 5.90442 9.83006 6.44025 9.83006ZM11.7692 8.38756V7.38756H19V8.38756H11.7692Z" fill="#272727"/>
</g>
</svg>
