<svg width="18" height="18" viewBox="0 0 18 18" fill="none" xmlns="http://www.w3.org/2000/svg">
<path d="M17.1042 17.8319L10.3209 11.0486C9.77928 11.5098 9.15637 11.8667 8.4522 12.1195C7.74803 12.3723 7.04043 12.4987 6.32941 12.4987C4.59427 12.4987 3.12572 11.898 1.92376 10.6968C0.721982 9.49557 0.121094 8.02792 0.121094 6.29386C0.121094 4.55963 0.721712 3.09072 1.92295 1.88713C3.12418 0.683732 4.59183 0.0820312 6.32589 0.0820312C8.06012 0.0820312 9.52903 0.68292 10.7326 1.8847C11.936 3.08666 12.5377 4.5552 12.5377 6.29034C12.5377 7.04308 12.4044 7.77153 12.1377 8.4757C11.871 9.17986 11.521 9.78193 11.0877 10.2819L17.871 17.0654L17.1042 17.8319ZM6.32941 11.4153C7.76681 11.4153 8.98032 10.9205 9.96995 9.93089C10.9596 8.94144 11.4544 7.72793 11.4544 6.29034C11.4544 4.85276 10.9596 3.63925 9.96995 2.6498C8.98032 1.66018 7.76681 1.16536 6.32941 1.16536C4.89182 1.16536 3.67831 1.66018 2.68886 2.6498C1.69924 3.63925 1.20443 4.85276 1.20443 6.29034C1.20443 7.72793 1.69924 8.94144 2.68886 9.93089C3.67831 10.9205 4.89182 11.4153 6.32941 11.4153Z" fill="#272727"/>
</svg>
